{
  "accessors": [
    {
      "bufferView": 1,
      "componentType": 5126,
      "count": 1248,
      "max": [
        -3.8645761013031006,
        8.006434440612793,
        5.6497721672058105
      ],
      "min": [
        -17.336809158325195,
        -0.039946548640728,
        -8.155401229858398
      ],
      "type": "VEC3"
    },
    {
      "bufferView": 1,
      "byteOffset": 14976,
      "componentType": 5126,
      "count": 1248,
      "max": [
        0.9996669888496399,
        0.9993699789047241,
        0.9996678233146667
      ],
      "min": [
        -0.9997842907905579,
        -0.999974250793457,
        -0.9992897510528564
      ],
      "type": "VEC3"
    },
    {
      "bufferView": 0,
      "componentType": 5125,
      "count": 1248,
      "type": "SCALAR"
    },
    {
      "bufferView": 1,
      "byteOffset": 29952,
      "componentType": 5126,
      "count": 1273,
      "max": [
        -9.881555557250977,
        6.897988796234131,
        1.0019500255584717
      ],
      "min": [
        -18.747650146484375,
        -16.534099578857422,
        -3.870189905166626
      ],
      "type": "VEC3"
    },
    {
      "bufferView": 1,
      "byteOffset": 45228,
      "componentType": 5126,
      "count": 1273,
      "max": [
        0.9994440674781799,
        1.0,
        0.958803653717041
      ],
      "min": [
        -0.9910842776298523,
        -1.0,
        -0.9588050842285156
      ],
      "type": "VEC3"
    },
    {
      "bufferView": 0,
      "byteOffset": 4992,
      "componentType": 5125,
      "count": 1308,
      "type": "SCALAR"
    }
  ],
  "asset": {
    "extras": {
      "author": "Philippines Tourism by Bart (https://sketchfab.com/PhilippinesTourism)",
      "license": "CC-BY-4.0 (http://creativecommons.org/licenses/by/4.0/)",
      "source": "https://sketchfab.com/3d-models/low-poly-palm-56ddd115a63f4f2db691c2f8df036613",
      "title": "low poly palm"
    },
    "generator": "Sketchfab-12.65.0",
    "version": "2.0"
  },
  "bufferViews": [
    {
      "buffer": 0,
      "byteLength": 10224,
      "name": "floatBufferViews",
      "target": 34963
    },
    {
      "buffer": 0,
      "byteLength": 60504,
      "byteOffset": 10224,
      "byteStride": 12,
      "name": "floatBufferViews",
      "target": 34962
    }
  ],
  "buffers": [
    {
      "byteLength": 70728,
      "uri": "scene.bin"
    }
  ],
  "materials": [
    {
      "doubleSided": true,
      "name": "Green",
      "pbrMetallicRoughness": {
        "baseColorFactor": [
          0.107142,
          0.64,
          0.0480806,
          1.0
        ],
        "metallicFactor": 0.0,
        "roughnessFactor": 0.5
      }
    },
    {
      "doubleSided": true,
      "name": "Brown",
      "pbrMetallicRoughness": {
        "baseColorFactor": [
          0.64,
          0.296817,
          0.137974,
          1.0
        ],
        "metallicFactor": 0.0,
        "roughnessFactor": 0.5
      }
    }
  ],
  "meshes": [
    {
      "name": "Object_0",
      "primitives": [
        {
          "attributes": {
            "NORMAL": 1,
            "POSITION": 0
          },
          "indices": 2,
          "material": 0,
          "mode": 4
        }
      ]
    },
    {
      "name": "Object_1",
      "primitives": [
        {
          "attributes": {
            "NORMAL": 4,
            "POSITION": 3
          },
          "indices": 5,
          "material": 1,
          "mode": 4
        }
      ]
    }
  ],
  "nodes": [
    {
      "children": [
        1
      ],
      "matrix": [
        1.0,
        0.0,
        0.0,
        0.0,
        0.0,
        2.220446049250313e-16,
        -1.0,
        0.0,
        0.0,
        1.0,
        2.220446049250313e-16,
        0.0,
        0.0,
        0.0,
        0.0,
        1.0
      ],
      "name": "Sketchfab_model"
    },
    {
      "children": [
        2
      ],
      "name": "root"
    },
    {
      "children": [
        3
      ],
      "matrix": [
        1.0,
        0.0,
        0.0,
        0.0,
        0.0,
        2.220446049250313e-16,
        1.0,
        0.0,
        0.0,
        -1.0,
        2.220446049250313e-16,
        0.0,
        0.0,
        0.0,
        0.0,
        1.0
      ],
      "name": "GLTF_SceneRootNode"
    },
    {
      "children": [
        4,
        5
      ],
      "matrix": [
        0.14398367438916057,
        0.0,
        -0.020884659081077804,
        0.0,
        0.0,
        0.14545641839504242,
        -0.0,
        0.0,
        0.02574151709444804,
        0.0,
        0.17746797786936833,
        0.0,
        2.5644688606262207,
        2.3866209983825684,
        0.0,
        1.0
      ],
      "name": "PALM4_2"
    },
    {
      "mesh": 0,
      "name": "Object_4"
    },
    {
      "mesh": 1,
      "name": "Object_5"
    }
  ],
  "scene": 0,
  "scenes": [
    {
      "name": "Sketchfab_Scene",
      "nodes": [
        0
      ]
    }
  ]
}
