{
  "accessors": [
    {
      "bufferView": 2,
      "componentType": 5126,
      "count": 4288,
      "max": [
        3.0529165267944336,
        15.78982162475586,
        14.714950561523438
      ],
      "min": [
        -6.330468654632568,
        5.0244855880737305,
        12.002769470214844
      ],
      "type": "VEC3"
    },
    {
      "bufferView": 2,
      "byteOffset": 51456,
      "componentType": 5126,
      "count": 4288,
      "max": [
        1.0,
        1.0,
        1.0
      ],
      "min": [
        -1.0,
        -1.0,
        -1.0
      ],
      "type": "VEC3"
    },
    {
      "bufferView": 0,
      "componentType": 5125,
      "count": 25128,
      "type": "SCALAR"
    },
    {
      "bufferView": 2,
      "byteOffset": 102912,
      "componentType": 5126,
      "count": 192,
      "max": [
        -1.5629260540008545,
        10.47905445098877,
        12.002769470214844
      ],
      "min": [
        -1.7146258354187012,
        10.32735538482666,
        3.970890998840332
      ],
      "type": "VEC3"
    },
    {
      "bufferView": 2,
      "byteOffset": 105216,
      "componentType": 5126,
      "count": 192,
      "max": [
        0.9999985694885254,
        0.9999986886978149,
        0.696243405342102
      ],
      "min": [
        -0.9999985694885254,
        -0.9999979734420776,
        0.000793494691606611
      ],
      "type": "VEC3"
    },
    {
      "bufferView": 0,
      "byteOffset": 100512,
      "componentType": 5125,
      "count": 954,
      "type": "SCALAR"
    },
    {
      "bufferView": 2,
      "byteOffset": 107520,
      "componentType": 5126,
      "count": 12719,
      "max": [
        9.365650177001953,
        15.316656112670898,
        15.017854690551758
      ],
      "min": [
        -1.8265506029129028,
        4.350776195526123,
        12.209038734436035
      ],
      "type": "VEC3"
    },
    {
      "bufferView": 2,
      "byteOffset": 260148,
      "componentType": 5126,
      "count": 12719,
      "max": [
        0.9999998807907104,
        0.9999998807907104,
        1.0
      ],
      "min": [
        -0.9999998807907104,
        -0.9999998807907104,
        -0.013153853826224804
      ],
      "type": "VEC3"
    },
    {
      "bufferView": 1,
      "componentType": 5126,
      "count": 12719,
      "max": [
        0.9798460006713867,
        1.0168423652648926
      ],
      "min": [
        0.0,
        0.0
      ],
      "type": "VEC2"
    },
    {
      "bufferView": 0,
      "byteOffset": 104328,
      "componentType": 5125,
      "count": 71232,
      "type": "SCALAR"
    },
    {
      "bufferView": 2,
      "byteOffset": 412776,
      "componentType": 5126,
      "count": 3976,
      "max": [
        0.07553386688232422,
        11.672126770019531,
        11.824995040893555
      ],
      "min": [
        -3.5987753868103027,
        4.0438008308410645,
        3.733309268951416
      ],
      "type": "VEC3"
    },
    {
      "bufferView": 2,
      "byteOffset": 460488,
      "componentType": 5126,
      "count": 3976,
      "max": [
        1.0,
        0.9998894929885864,
        0.9994243383407593
      ],
      "min": [
        -1.0,
        -0.9998903274536133,
        -0.9994242191314697
      ],
      "type": "VEC3"
    },
    {
      "bufferView": 1,
      "byteOffset": 101752,
      "componentType": 5126,
      "count": 3976,
      "max": [
        1.0,
        1.0
      ],
      "min": [
        0.0,
        0.0
      ],
      "type": "VEC2"
    },
    {
      "bufferView": 0,
      "byteOffset": 389256,
      "componentType": 5125,
      "count": 15192,
      "type": "SCALAR"
    },
    {
      "bufferView": 2,
      "byteOffset": 508200,
      "componentType": 5126,
      "count": 3306,
      "max": [
        -0.30612674355506897,
        13.42437744140625,
        7.313631534576416
      ],
      "min": [
        -3.217115640640259,
        6.299976348876953,
        3.5766408443450928
      ],
      "type": "VEC3"
    },
    {
      "bufferView": 2,
      "byteOffset": 547872,
      "componentType": 5126,
      "count": 3306,
      "max": [
        0.7756419777870178,
        0.9995778799057007,
        0.9998056888580322
      ],
      "min": [
        -0.7756567597389221,
        -0.9996109008789063,
        -0.9998272657394409
      ],
      "type": "VEC3"
    },
    {
      "bufferView": 0,
      "byteOffset": 450024,
      "componentType": 5125,
      "count": 19824,
      "type": "SCALAR"
    },
    {
      "bufferView": 2,
      "byteOffset": 587544,
      "componentType": 5126,
      "count": 1186,
      "max": [
        3.942387104034424,
        4.461658000946045,
        -8.876446723937988
      ],
      "min": [
        0.221146821975708,
        0.5715206861495972,
        -10.753402709960938
      ],
      "type": "VEC3"
    },
    {
      "bufferView": 2,
      "byteOffset": 601776,
      "componentType": 5126,
      "count": 1186,
      "max": [
        1.0,
        1.0,
        1.0
      ],
      "min": [
        -1.0,
        -1.0,
        -1.0
      ],
      "type": "VEC3"
    },
    {
      "bufferView": 1,
      "byteOffset": 133560,
      "componentType": 5126,
      "count": 1186,
      "max": [
        0.5,
        1.0
      ],
      "min": [
        0.0,
        0.0
      ],
      "type": "VEC2"
    },
    {
      "bufferView": 0,
      "byteOffset": 529320,
      "componentType": 5125,
      "count": 2208,
      "type": "SCALAR"
    },
    {
      "bufferView": 2,
      "byteOffset": 616008,
      "componentType": 5126,
      "count": 4783,
      "max": [
        -9.013633728027344,
        0.7946016192436218,
        4.103501319885254
      ],
      "min": [
        -10.617956161499023,
        -2.4736745357513428,
        4.05100679397583
      ],
      "type": "VEC3"
    },
    {
      "bufferView": 2,
      "byteOffset": 673404,
      "componentType": 5126,
      "count": 4783,
      "max": [
        1.0,
        1.0,
        1.0
      ],
      "min": [
        -1.0,
        -1.0,
        -1.0
      ],
      "type": "VEC3"
    },
    {
      "bufferView": 1,
      "byteOffset": 143048,
      "componentType": 5126,
      "count": 4783,
      "max": [
        0.40000009536743164,
        1.000000238418579
      ],
      "min": [
        0.39063671231269836,
        0.0
      ],
      "type": "VEC2"
    },
    {
      "bufferView": 0,
      "byteOffset": 538152,
      "componentType": 5125,
      "count": 22416,
      "type": "SCALAR"
    },
    {
      "bufferView": 3,
      "componentType": 5126,
      "count": 196,
      "max": [
        4.083333492279053
      ],
      "min": [
        0.0
      ],
      "type": "SCALAR"
    },
    {
      "bufferView": 4,
      "componentType": 5126,
      "count": 196,
      "max": [
        0.0,
        69.95793914794922,
        0.0
      ],
      "min": [
        0.0,
        -11.675203323364258,
        0.0
      ],
      "type": "VEC3"
    }
  ],
  "animations": [
    {
      "channels": [
        {
          "sampler": 0,
          "target": {
            "node": 4,
            "path": "translation"
          }
        }
      ],
      "name": "Cylinder.002|Cube.001Action",
      "samplers": [
        {
          "input": 25,
          "interpolation": "LINEAR",
          "output": 26
        }
      ]
    }
  ],
  "asset": {
    "extras": {
      "author": "Jacob.Elhatmi (https://sketchfab.com/Jacob.Elhatmi)",
      "license": "CC-BY-4.0 (http://creativecommons.org/licenses/by/4.0/)",
      "source": "https://sketchfab.com/3d-models/beach-chair-b1e7c2810f8340a982d138d0349111b5",
      "title": "Beach chair"
    },
    "generator": "Sketchfab-12.66.0",
    "version": "2.0"
  },
  "bufferViews": [
    {
      "buffer": 0,
      "byteLength": 627816,
      "name": "floatBufferViews",
      "target": 34963
    },
    {
      "buffer": 0,
      "byteLength": 181312,
      "byteOffset": 627816,
      "byteStride": 8,
      "name": "floatBufferViews",
      "target": 34962
    },
    {
      "buffer": 0,
      "byteLength": 730800,
      "byteOffset": 809128,
      "byteStride": 12,
      "name": "floatBufferViews",
      "target": 34962
    },
    {
      "buffer": 0,
      "byteLength": 784,
      "byteOffset": 1539928,
      "name": "floatBufferViews"
    },
    {
      "buffer": 0,
      "byteLength": 2352,
      "byteOffset": 1540712,
      "byteStride": 12,
      "name": "floatBufferViews"
    }
  ],
  "buffers": [
    {
      "byteLength": 1543064,
      "uri": "scene.bin"
    }
  ],
  "materials": [
    {
      "doubleSided": true,
      "name": "Material.005",
      "pbrMetallicRoughness": {
        "baseColorFactor": [
          0.8,
          0.8,
          0.8,
          1.0
        ],
        "metallicFactor": 0.0,
        "roughnessFactor": 0.8387065199315717
      }
    },
    {
      "doubleSided": true,
      "name": "Material.006",
      "pbrMetallicRoughness": {
        "baseColorFactor": [
          0.8,
          0.8,
          0.8,
          1.0
        ],
        "metallicFactor": 0.0,
        "roughnessFactor": 0.8211145618000169
      }
    },
    {
      "doubleSided": true,
      "name": "Material.007",
      "pbrMetallicRoughness": {
        "baseColorFactor": [
          0.761808,
          0.761808,
          0.761808,
          1.0
        ],
        "metallicFactor": 0.0,
        "roughnessFactor": 0.829654552619684
      }
    },
    {
      "doubleSided": true,
      "name": "Material.001",
      "pbrMetallicRoughness": {
        "baseColorFactor": [
          0.555926,
          0.314791,
          0.200691,
          1.0
        ],
        "metallicFactor": 0.0,
        "roughnessFactor": 0.9199894000091878
      }
    },
    {
      "doubleSided": true,
      "name": "Material.002",
      "pbrMetallicRoughness": {
        "baseColorFactor": [
          0.761808,
          0.761808,
          0.761808,
          1.0
        ],
        "metallicFactor": 0.0,
        "roughnessFactor": 0.829654552619684
      }
    }
  ],
  "meshes": [
    {
      "name": "Cylinder.002_Material.005_0",
      "primitives": [
        {
          "attributes": {
            "NORMAL": 1,
            "POSITION": 0
          },
          "indices": 2,
          "material": 0,
          "mode": 4
        }
      ]
    },
    {
      "name": "Cylinder.002_Material.006_0",
      "primitives": [
        {
          "attributes": {
            "NORMAL": 4,
            "POSITION": 3
          },
          "indices": 5,
          "material": 1,
          "mode": 4
        }
      ]
    },
    {
      "name": "Circle.002_Material.007_0",
      "primitives": [
        {
          "attributes": {
            "NORMAL": 7,
            "POSITION": 6,
            "TEXCOORD_0": 8
          },
          "indices": 9,
          "material": 2,
          "mode": 4
        }
      ]
    },
    {
      "name": "Plane.008_Material.001_0",
      "primitives": [
        {
          "attributes": {
            "NORMAL": 11,
            "POSITION": 10,
            "TEXCOORD_0": 12
          },
          "indices": 13,
          "material": 3,
          "mode": 4
        }
      ]
    },
    {
      "name": "Plane.010_Material.002_0",
      "primitives": [
        {
          "attributes": {
            "NORMAL": 15,
            "POSITION": 14
          },
          "indices": 16,
          "material": 4,
          "mode": 4
        }
      ]
    },
    {
      "name": "Plane.005_Material.001_0",
      "primitives": [
        {
          "attributes": {
            "NORMAL": 18,
            "POSITION": 17,
            "TEXCOORD_0": 19
          },
          "indices": 20,
          "material": 3,
          "mode": 4
        }
      ]
    },
    {
      "name": "Plane.006_Material.001_0",
      "primitives": [
        {
          "attributes": {
            "NORMAL": 22,
            "POSITION": 21,
            "TEXCOORD_0": 23
          },
          "indices": 24,
          "material": 3,
          "mode": 4
        }
      ]
    }
  ],
  "nodes": [
    {
      "children": [
        1
      ],
      "matrix": [
        0.0019294403027743101,
        0.0,
        0.0,
        0.0,
        0.0,
        4.284218097559545e-19,
        -0.0019294403027743101,
        0.0,
        0.0,
        0.0019294403027743101,
        4.284218097559545e-19,
        0.0,
        0.0,
        0.0,
        0.0,
        1.0
      ],
      "name": "Sketchfab_model"
    },
    {
      "children": [
        2
      ],
      "matrix": [
        1.0,
        0.0,
        0.0,
        0.0,
        0.0,
        0.0,
        1.0,
        0.0,
        0.0,
        -1.0,
        0.0,
        0.0,
        0.0,
        0.0,
        0.0,
        1.0
      ],
      "name": "47a78b8df46d4fc09142c70468fb7d5a.fbx"
    },
    {
      "children": [
        3
      ],
      "name": "Object_2"
    },
    {
      "children": [
        4,
        9,
        13
      ],
      "name": "RootNode"
    },
    {
      "children": [
        5,
        6,
        7
      ],
      "name": "Cylinder.002",
      "rotation": [
        -0.7681750059127808,
        0.14607155323028564,
        -0.05980644002556801,
        0.6204783916473389
      ],
      "scale": [
        100.0,
        100.00000762939453,
        99.99999237060547
      ],
      "translation": [
        -270.3645935058594,
        -3.423145294189453,
        -1029.1802978515625
      ]
    },
    {
      "mesh": 0,
      "name": "Cylinder.002_Material.005_0"
    },
    {
      "mesh": 1,
      "name": "Cylinder.002_Material.006_0"
    },
    {
      "children": [
        8
      ],
      "name": "Circle.002",
      "rotation": [
        -1.614762794588387e-07,
        1.5424602040070567e-08,
        0.25830039381980896,
        0.9660646319389343
      ],
      "scale": [
        1.0,
        0.9999999403953552,
        1.0
      ]
    },
    {
      "mesh": 2,
      "name": "Circle.002_Material.007_0"
    },
    {
      "children": [
        10,
        11
      ],
      "name": "Plane.008",
      "rotation": [
        -0.8128318190574646,
        -0.08440577238798141,
        -0.12178812921047211,
        0.5633364915847778
      ],
      "scale": [
        100.0,
        100.0,
        100.0
      ]
    },
    {
      "mesh": 3,
      "name": "Plane.008_Material.001_0"
    },
    {
      "children": [
        12
      ],
      "name": "Plane.010",
      "rotation": [
        0.17838911712169647,
        2.355339567827741e-08,
        -8.096313308669778e-08,
        0.9839600324630737
      ],
      "scale": [
        1.0,
        0.9999999403953552,
        1.0
      ]
    },
    {
      "mesh": 4,
      "name": "Plane.010_Material.002_0"
    },
    {
      "children": [
        14,
        15
      ],
      "name": "Plane.005",
      "rotation": [
        0.07922489941120148,
        0.15218961238861084,
        0.4549013376235962,
        0.8738572597503662
      ],
      "scale": [
        100.0,
        100.0,
        100.00000762939453
      ]
    },
    {
      "mesh": 5,
      "name": "Plane.005_Material.001_0"
    },
    {
      "children": [
        16
      ],
      "name": "Plane.006",
      "rotation": [
        0.674379825592041,
        0.21263101696968079,
        0.6743797063827515,
        -0.21263106167316437
      ]
    },
    {
      "mesh": 6,
      "name": "Plane.006_Material.001_0"
    }
  ],
  "scene": 0,
  "scenes": [
    {
      "name": "Sketchfab_Scene",
      "nodes": [
        0
      ]
    }
  ]
}
