{
  "accessors": [
    {
      "bufferView": 2,
      "componentType": 5126,
      "count": 3522,
      "max": [
        1.636086106300354,
        0.6968744993209839,
        0.6343919634819031
      ],
      "min": [
        -1.5177843570709229,
        -0.10060141980648041,
        -0.6343919634819031
      ],
      "type": "VEC3"
    },
    {
      "bufferView": 2,
      "byteOffset": 42264,
      "componentType": 5126,
      "count": 3522,
      "max": [
        1.0,
        0.9998677968978882,
        1.0
      ],
      "min": [
        -1.0,
        -1.0,
        -1.0
      ],
      "type": "VEC3"
    },
    {
      "bufferView": 1,
      "componentType": 5126,
      "count": 3522,
      "max": [
        1.0384010076522827,
        1.0
      ],
      "min": [
        0.0,
        0.0
      ],
      "type": "VEC2"
    },
    {
      "bufferView": 0,
      "componentType": 5125,
      "count": 5340,
      "type": "SCALAR"
    },
    {
      "bufferView": 2,
      "byteOffset": 84528,
      "componentType": 5126,
      "count": 64,
      "max": [
        -1.23073410987854,
        0.27369043231010437,
        0.5346272587776184
      ],
      "min": [
        -1.445725679397583,
        0.15637023746967316,
        -0.5346272587776184
      ],
      "type": "VEC3"
    },
    {
      "bufferView": 2,
      "byteOffset": 85296,
      "componentType": 5126,
      "count": 64,
      "max": [
        -0.5214577317237854,
        0.3087308704853058,
        0.8196420669555664
      ],
      "min": [
        -0.8975808024406433,
        0.17757442593574524,
        -0.8196411728858948
      ],
      "type": "VEC3"
    },
    {
      "bufferView": 1,
      "byteOffset": 28176,
      "componentType": 5126,
      "count": 64,
      "max": [
        0.02748216688632965,
        0.004739891272038221
      ],
      "min": [
        0.0,
        0.000583443499635905
      ],
      "type": "VEC2"
    },
    {
      "bufferView": 0,
      "byteOffset": 21360,
      "componentType": 5125,
      "count": 96,
      "type": "SCALAR"
    },
    {
      "bufferView": 2,
      "byteOffset": 86064,
      "componentType": 5126,
      "count": 152,
      "max": [
        -1.357848882675171,
        0.2177269607782364,
        0.48775148391723633
      ],
      "min": [
        -1.4887710809707642,
        -0.04116843640804291,
        -0.48775148391723633
      ],
      "type": "VEC3"
    },
    {
      "bufferView": 2,
      "byteOffset": 87888,
      "componentType": 5126,
      "count": 152,
      "max": [
        0.014475231058895588,
        1.0,
        0.9999898076057434
      ],
      "min": [
        -0.9994049072265625,
        -1.0,
        -0.9999898076057434
      ],
      "type": "VEC3"
    },
    {
      "bufferView": 1,
      "byteOffset": 28688,
      "componentType": 5126,
      "count": 152,
      "max": [
        0.004672549664974213,
        0.7883744239807129
      ],
      "min": [
        0.0,
        0.0
      ],
      "type": "VEC2"
    },
    {
      "bufferView": 0,
      "byteOffset": 21744,
      "componentType": 5125,
      "count": 228,
      "type": "SCALAR"
    },
    {
      "bufferView": 2,
      "byteOffset": 89712,
      "componentType": 5126,
      "count": 128,
      "max": [
        1.5822278261184692,
        0.40884479880332947,
        0.5001851916313171
      ],
      "min": [
        1.5297714471817017,
        0.2756774127483368,
        -0.5001851320266724
      ],
      "type": "VEC3"
    },
    {
      "bufferView": 2,
      "byteOffset": 91248,
      "componentType": 5126,
      "count": 128,
      "max": [
        0.9958825707435608,
        0.13203847408294678,
        0.31436875462532043
      ],
      "min": [
        0.9419636130332947,
        0.07001247256994247,
        -0.3143734633922577
      ],
      "type": "VEC3"
    },
    {
      "bufferView": 1,
      "byteOffset": 29904,
      "componentType": 5126,
      "count": 128,
      "max": [
        0.0,
        0.0
      ],
      "min": [
        0.0,
        0.0
      ],
      "type": "VEC2"
    },
    {
      "bufferView": 0,
      "byteOffset": 22656,
      "componentType": 5125,
      "count": 192,
      "type": "SCALAR"
    },
    {
      "bufferView": 2,
      "byteOffset": 92784,
      "componentType": 5126,
      "count": 1058,
      "max": [
        1.6406292915344238,
        0.23650005459785461,
        0.6275267601013184
      ],
      "min": [
        -1.4900894165039063,
        -0.10060141980648041,
        -0.6275267601013184
      ],
      "type": "VEC3"
    },
    {
      "bufferView": 2,
      "byteOffset": 105480,
      "componentType": 5126,
      "count": 1058,
      "max": [
        0.999936044216156,
        0.9999393224716187,
        1.0
      ],
      "min": [
        -0.9999287724494934,
        -1.0,
        -1.0
      ],
      "type": "VEC3"
    },
    {
      "bufferView": 1,
      "byteOffset": 30928,
      "componentType": 5126,
      "count": 1058,
      "max": [
        0.0,
        0.0
      ],
      "min": [
        0.0,
        0.0
      ],
      "type": "VEC2"
    },
    {
      "bufferView": 0,
      "byteOffset": 23424,
      "componentType": 5125,
      "count": 1608,
      "type": "SCALAR"
    },
    {
      "bufferView": 2,
      "byteOffset": 118176,
      "componentType": 5126,
      "count": 96,
      "max": [
        1.171636700630188,
        0.657724142074585,
        0.5049698352813721
      ],
      "min": [
        -0.5644065141677856,
        0.37786340713500977,
        -0.5049697160720825
      ],
      "type": "VEC3"
    },
    {
      "bufferView": 2,
      "byteOffset": 119328,
      "componentType": 5126,
      "count": 96,
      "max": [
        0.40104788541793823,
        0.9247230887413025,
        0.8775978684425354
      ],
      "min": [
        -0.5014808773994446,
        0.47921672463417053,
        -0.8775976896286011
      ],
      "type": "VEC3"
    },
    {
      "bufferView": 1,
      "byteOffset": 39392,
      "componentType": 5126,
      "count": 96,
      "max": [
        1.0,
        1.0
      ],
      "min": [
        0.0,
        0.0
      ],
      "type": "VEC2"
    },
    {
      "bufferView": 0,
      "byteOffset": 29856,
      "componentType": 5125,
      "count": 144,
      "type": "SCALAR"
    },
    {
      "bufferView": 2,
      "byteOffset": 120480,
      "componentType": 5126,
      "count": 32,
      "max": [
        1.5618280172348022,
        0.38346725702285767,
        0.47125720977783203
      ],
      "min": [
        1.5385712385177612,
        0.3065551817417145,
        -0.47125712037086487
      ],
      "type": "VEC3"
    },
    {
      "bufferView": 2,
      "byteOffset": 120864,
      "componentType": 5126,
      "count": 32,
      "max": [
        0.95559161901474,
        0.11997327208518982,
        0.31098487973213196
      ],
      "min": [
        0.943595290184021,
        0.08795939385890961,
        -0.31098559498786926
      ],
      "type": "VEC3"
    },
    {
      "bufferView": 1,
      "byteOffset": 40160,
      "componentType": 5126,
      "count": 32,
      "max": [
        0.0,
        0.0
      ],
      "min": [
        0.0,
        0.0
      ],
      "type": "VEC2"
    },
    {
      "bufferView": 0,
      "byteOffset": 30432,
      "componentType": 5125,
      "count": 48,
      "type": "SCALAR"
    },
    {
      "bufferView": 2,
      "byteOffset": 121248,
      "componentType": 5126,
      "count": 32,
      "max": [
        1.5802174806594849,
        0.35995349287986755,
        0.3349701762199402
      ],
      "min": [
        1.572717308998108,
        0.2990962862968445,
        -0.33497005701065063
      ],
      "type": "VEC3"
    },
    {
      "bufferView": 2,
      "byteOffset": 121632,
      "componentType": 5126,
      "count": 32,
      "max": [
        0.9944819211959839,
        0.1173710748553276,
        0.09068942815065384
      ],
      "min": [
        0.9890177249908447,
        0.08422451466321945,
        -0.09068729728460312
      ],
      "type": "VEC3"
    },
    {
      "bufferView": 1,
      "byteOffset": 40416,
      "componentType": 5126,
      "count": 32,
      "max": [
        0.0,
        0.0
      ],
      "min": [
        0.0,
        0.0
      ],
      "type": "VEC2"
    },
    {
      "bufferView": 0,
      "byteOffset": 30624,
      "componentType": 5125,
      "count": 48,
      "type": "SCALAR"
    },
    {
      "bufferView": 2,
      "byteOffset": 122016,
      "componentType": 5126,
      "count": 1208,
      "max": [
        1.0,
        2.746687173843384,
        1.0000001192092896
      ],
      "min": [
        -1.0,
        -2.5675392150878906,
        -1.0000007152557373
      ],
      "type": "VEC3"
    },
    {
      "bufferView": 2,
      "byteOffset": 136512,
      "componentType": 5126,
      "count": 1208,
      "max": [
        0.9914449453353882,
        1.0,
        0.991445004940033
      ],
      "min": [
        -0.9914450645446777,
        -1.0,
        -0.9914449453353882
      ],
      "type": "VEC3"
    },
    {
      "bufferView": 1,
      "byteOffset": 40672,
      "componentType": 5126,
      "count": 1208,
      "max": [
        0.0,
        0.0
      ],
      "min": [
        0.0,
        0.0
      ],
      "type": "VEC2"
    },
    {
      "bufferView": 0,
      "byteOffset": 30816,
      "componentType": 5125,
      "count": 1872,
      "type": "SCALAR"
    },
    {
      "bufferView": 2,
      "byteOffset": 151008,
      "componentType": 5126,
      "count": 1714,
      "max": [
        0.8748579621315002,
        2.697568893432617,
        0.874858021736145
      ],
      "min": [
        -0.8748578429222107,
        -2.518420934677124,
        -0.8748586773872375
      ],
      "type": "VEC3"
    },
    {
      "bufferView": 2,
      "byteOffset": 171576,
      "componentType": 5126,
      "count": 1714,
      "max": [
        0.9914451241493225,
        1.0,
        1.0
      ],
      "min": [
        -0.9914451241493225,
        -1.0,
        -1.0
      ],
      "type": "VEC3"
    },
    {
      "bufferView": 1,
      "byteOffset": 50336,
      "componentType": 5126,
      "count": 1714,
      "max": [
        0.0,
        0.0
      ],
      "min": [
        0.0,
        0.0
      ],
      "type": "VEC2"
    },
    {
      "bufferView": 0,
      "byteOffset": 38304,
      "componentType": 5125,
      "count": 2712,
      "type": "SCALAR"
    },
    {
      "bufferView": 2,
      "byteOffset": 192144,
      "componentType": 5126,
      "count": 1206,
      "max": [
        1.0,
        2.6704704761505127,
        1.0000001192092896
      ],
      "min": [
        -1.0,
        -2.4913225173950195,
        -1.0000007152557373
      ],
      "type": "VEC3"
    },
    {
      "bufferView": 2,
      "byteOffset": 206616,
      "componentType": 5126,
      "count": 1206,
      "max": [
        0.9914449453353882,
        1.0,
        0.991445004940033
      ],
      "min": [
        -0.9914450645446777,
        -1.0,
        -0.9914449453353882
      ],
      "type": "VEC3"
    },
    {
      "bufferView": 1,
      "byteOffset": 64048,
      "componentType": 5126,
      "count": 1206,
      "max": [
        0.0,
        0.0
      ],
      "min": [
        0.0,
        0.0
      ],
      "type": "VEC2"
    },
    {
      "bufferView": 0,
      "byteOffset": 49152,
      "componentType": 5125,
      "count": 1872,
      "type": "SCALAR"
    },
    {
      "bufferView": 2,
      "byteOffset": 221088,
      "componentType": 5126,
      "count": 1740,
      "max": [
        0.8748579621315002,
        2.621352195739746,
        0.874858021736145
      ],
      "min": [
        -0.8748578429222107,
        -2.442204236984253,
        -0.8748586177825928
      ],
      "type": "VEC3"
    },
    {
      "bufferView": 2,
      "byteOffset": 241968,
      "componentType": 5126,
      "count": 1740,
      "max": [
        0.991445004940033,
        1.0,
        1.0
      ],
      "min": [
        -0.9914451241493225,
        -1.0,
        -1.0
      ],
      "type": "VEC3"
    },
    {
      "bufferView": 1,
      "byteOffset": 73696,
      "componentType": 5126,
      "count": 1740,
      "max": [
        0.0,
        0.0
      ],
      "min": [
        0.0,
        0.0
      ],
      "type": "VEC2"
    },
    {
      "bufferView": 0,
      "byteOffset": 56640,
      "componentType": 5125,
      "count": 2712,
      "type": "SCALAR"
    }
  ],
  "asset": {
    "extras": {
      "author": "yokatann (https://sketchfab.com/yokatann)",
      "license": "CC-BY-4.0 (http://creativecommons.org/licenses/by/4.0/)",
      "source": "https://sketchfab.com/3d-models/low-poly-nissan-skyline-r34-d8b4d2165c8240c8857258229b1e5c0f",
      "title": "Low Poly Nissan Skyline R34"
    },
    "generator": "Sketchfab-15.18.0",
    "version": "2.0"
  },
  "bufferViews": [
    {
      "buffer": 0,
      "byteLength": 67488,
      "name": "floatBufferViews",
      "target": 34963
    },
    {
      "buffer": 0,
      "byteLength": 87616,
      "byteOffset": 67488,
      "byteStride": 8,
      "name": "floatBufferViews",
      "target": 34962
    },
    {
      "buffer": 0,
      "byteLength": 262848,
      "byteOffset": 155104,
      "byteStride": 12,
      "name": "floatBufferViews",
      "target": 34962
    }
  ],
  "buffers": [
    {
      "byteLength": 417952,
      "uri": "scene.bin"
    }
  ],
  "extensionsUsed": [
    "KHR_materials_specular",
    "KHR_materials_emissive_strength"
  ],
  "materials": [
    {
      "doubleSided": true,
      "extensions": {
        "KHR_materials_specular": {
          "specularColorFactor": [
            1.0,
            1.0,
            1.0
          ],
          "specularFactor": 0.5958113396155111
        }
      },
      "name": "Material.019",
      "pbrMetallicRoughness": {
        "baseColorFactor": [
          0.036040599999999985,
          0.18242200000000008,
          1.0,
          1.0
        ],
        "roughnessFactor": 0.5897160829442527
      }
    },
    {
      "doubleSided": true,
      "emissiveFactor": [
        1.0,
        1.0,
        1.0
      ],
      "name": "Material.018"
    },
    {
      "doubleSided": true,
      "name": "Material.017",
      "pbrMetallicRoughness": {
        "baseColorFactor": [
          0.0113127,
          0.0113127,
          0.0113127,
          1.0
        ],
        "metallicFactor": 0.0,
        "roughnessFactor": 0.809091
      }
    },
    {
      "doubleSided": true,
      "emissiveFactor": [
        1.0,
        0.0,
        0.0019343999999999913
      ],
      "extensions": {
        "KHR_materials_emissive_strength": {
          "emissiveStrength": 10.0
        }
      },
      "name": "Material.016",
      "pbrMetallicRoughness": {
        "baseColorFactor": [
          0.0,
          0.0,
          0.0,
          1.0
        ]
      }
    },
    {
      "doubleSided": true,
      "name": "Material.015",
      "pbrMetallicRoughness": {
        "baseColorFactor": [
          0.0144585,
          0.0144585,
          0.0144585,
          1.0
        ],
        "roughnessFactor": 0.154545
      }
    },
    {
      "doubleSided": true,
      "extensions": {
        "KHR_materials_specular": {
          "specularColorFactor": [
            1.0,
            1.0,
            1.0
          ],
          "specularFactor": 0.5104777462178932
        }
      },
      "name": "Material.014",
      "pbrMetallicRoughness": {
        "baseColorFactor": [
          0.009684095315669747,
          0.014120933598511857,
          0.03282970664197667,
          1.0
        ],
        "roughnessFactor": 0.236191196011264
      }
    },
    {
      "doubleSided": true,
      "emissiveFactor": [
        0.11051099999999998,
        0.0,
        0.000767284000000005
      ],
      "extensions": {
        "KHR_materials_emissive_strength": {
          "emissiveStrength": 6.994307030269045
        }
      },
      "name": "Material.013",
      "pbrMetallicRoughness": {
        "baseColorFactor": [
          0.0,
          0.0,
          0.0,
          1.0
        ]
      }
    },
    {
      "doubleSided": true,
      "emissiveFactor": [
        0.19216699999999987,
        0.04409700000000001,
        0.0
      ],
      "extensions": {
        "KHR_materials_emissive_strength": {
          "emissiveStrength": 10.0
        }
      },
      "name": "Material.012",
      "pbrMetallicRoughness": {
        "baseColorFactor": [
          0.0,
          0.0,
          0.0,
          1.0
        ]
      }
    },
    {
      "doubleSided": true,
      "name": "Material.011",
      "pbrMetallicRoughness": {
        "baseColorFactor": [
          0.0030056700000000002,
          0.0030056700000000002,
          0.0030056700000000002,
          1.0
        ],
        "metallicFactor": 0.0
      }
    },
    {
      "doubleSided": true,
      "name": "Material.001",
      "pbrMetallicRoughness": {
        "baseColorFactor": [
          0.42197790782417816,
          0.42197790782417816,
          0.42197790782417816,
          1.0
        ],
        "roughnessFactor": 0.6689544196706123
      }
    }
  ],
  "meshes": [
    {
      "name": "Object_0",
      "primitives": [
        {
          "attributes": {
            "NORMAL": 1,
            "POSITION": 0,
            "TEXCOORD_0": 2
          },
          "indices": 3,
          "material": 0,
          "mode": 4
        }
      ]
    },
    {
      "name": "Object_1",
      "primitives": [
        {
          "attributes": {
            "NORMAL": 5,
            "POSITION": 4,
            "TEXCOORD_0": 6
          },
          "indices": 7,
          "material": 1,
          "mode": 4
        }
      ]
    },
    {
      "name": "Object_2",
      "primitives": [
        {
          "attributes": {
            "NORMAL": 9,
            "POSITION": 8,
            "TEXCOORD_0": 10
          },
          "indices": 11,
          "material": 2,
          "mode": 4
        }
      ]
    },
    {
      "name": "Object_3",
      "primitives": [
        {
          "attributes": {
            "NORMAL": 13,
            "POSITION": 12,
            "TEXCOORD_0": 14
          },
          "indices": 15,
          "material": 3,
          "mode": 4
        }
      ]
    },
    {
      "name": "Object_4",
      "primitives": [
        {
          "attributes": {
            "NORMAL": 17,
            "POSITION": 16,
            "TEXCOORD_0": 18
          },
          "indices": 19,
          "material": 4,
          "mode": 4
        }
      ]
    },
    {
      "name": "Object_5",
      "primitives": [
        {
          "attributes": {
            "NORMAL": 21,
            "POSITION": 20,
            "TEXCOORD_0": 22
          },
          "indices": 23,
          "material": 5,
          "mode": 4
        }
      ]
    },
    {
      "name": "Object_6",
      "primitives": [
        {
          "attributes": {
            "NORMAL": 25,
            "POSITION": 24,
            "TEXCOORD_0": 26
          },
          "indices": 27,
          "material": 6,
          "mode": 4
        }
      ]
    },
    {
      "name": "Object_7",
      "primitives": [
        {
          "attributes": {
            "NORMAL": 29,
            "POSITION": 28,
            "TEXCOORD_0": 30
          },
          "indices": 31,
          "material": 7,
          "mode": 4
        }
      ]
    },
    {
      "name": "Object_8",
      "primitives": [
        {
          "attributes": {
            "NORMAL": 33,
            "POSITION": 32,
            "TEXCOORD_0": 34
          },
          "indices": 35,
          "material": 8,
          "mode": 4
        }
      ]
    },
    {
      "name": "Object_9",
      "primitives": [
        {
          "attributes": {
            "NORMAL": 37,
            "POSITION": 36,
            "TEXCOORD_0": 38
          },
          "indices": 39,
          "material": 9,
          "mode": 4
        }
      ]
    },
    {
      "name": "Object_10",
      "primitives": [
        {
          "attributes": {
            "NORMAL": 41,
            "POSITION": 40,
            "TEXCOORD_0": 42
          },
          "indices": 43,
          "material": 8,
          "mode": 4
        }
      ]
    },
    {
      "name": "Object_11",
      "primitives": [
        {
          "attributes": {
            "NORMAL": 45,
            "POSITION": 44,
            "TEXCOORD_0": 46
          },
          "indices": 47,
          "material": 9,
          "mode": 4
        }
      ]
    }
  ],
  "nodes": [
    {
      "children": [
        1
      ],
      "matrix": [
        1.0,
        0.0,
        0.0,
        0.0,
        0.0,
        2.220446049250313e-16,
        -1.0,
        0.0,
        0.0,
        1.0,
        2.220446049250313e-16,
        0.0,
        0.0,
        0.0,
        0.0,
        1.0
      ],
      "name": "Sketchfab_model"
    },
    {
      "children": [
        2
      ],
      "name": "root"
    },
    {
      "children": [
        3
      ],
      "matrix": [
        1.0,
        0.0,
        0.0,
        0.0,
        0.0,
        2.220446049250313e-16,
        1.0,
        0.0,
        0.0,
        -1.0,
        2.220446049250313e-16,
        0.0,
        0.0,
        0.0,
        0.0,
        1.0
      ],
      "name": "GLTF_SceneRootNode"
    },
    {
      "children": [
        4,
        5,
        6,
        7,
        8,
        9,
        10,
        11,
        12,
        15
      ],
      "matrix": [
        1.7337350845336914,
        0.0,
        0.0,
        0.0,
        0.0,
        1.7337350845336914,
        0.0,
        0.0,
        0.0,
        0.0,
        1.7337350845336914,
        0.0,
        0.0,
        0.0,
        0.0,
        1.0
      ],
      "name": "body.001_2"
    },
    {
      "mesh": 0,
      "name": "Object_4"
    },
    {
      "mesh": 1,
      "name": "Object_5"
    },
    {
      "mesh": 2,
      "name": "Object_6"
    },
    {
      "mesh": 3,
      "name": "Object_7"
    },
    {
      "mesh": 4,
      "name": "Object_8"
    },
    {
      "mesh": 5,
      "name": "Object_9"
    },
    {
      "mesh": 6,
      "name": "Object_10"
    },
    {
      "mesh": 7,
      "name": "Object_11"
    },
    {
      "children": [
        13,
        14
      ],
      "matrix": [
        -0.2351769059896469,
        0.0,
        -0.0,
        -0.0,
        -0.0,
        3.9647862399195254e-08,
        -0.23517690598964358,
        -0.0,
        -0.0,
        0.23517690598964358,
        3.9647862399195254e-08,
        -0.0,
        0.9470003247261047,
        -0.019609861075878143,
        0.02106570266187191,
        1.0
      ],
      "name": "wheelsback_0"
    },
    {
      "mesh": 8,
      "name": "Object_13"
    },
    {
      "mesh": 9,
      "name": "Object_14"
    },
    {
      "children": [
        16,
        17
      ],
      "matrix": [
        -0.2351769059896469,
        0.0,
        -0.0,
        -0.0,
        0.0,
        3.9647862399195254e-08,
        -0.23517690598964358,
        -0.0,
        0.0,
        0.23517690598964358,
        3.9647862399195254e-08,
        -0.0,
        -0.8902110457420349,
        -0.019609861075878143,
        0.02106570266187191,
        1.0
      ],
      "name": "wheelsfront_1"
    },
    {
      "mesh": 10,
      "name": "Object_16"
    },
    {
      "mesh": 11,
      "name": "Object_17"
    }
  ],
  "scene": 0,
  "scenes": [
    {
      "name": "Sketchfab_Scene",
      "nodes": [
        0
      ]
    }
  ]
}
