{
  "accessors": [
    {
      "bufferView": 2,
      "componentType": 5126,
      "count": 2276,
      "max": [
        0.8010474443435669,
        0.7209156155586243,
        2.1846680641174316
      ],
      "min": [
        -0.8010474443435669,
        -0.2874191999435425,
        -1.684923529624939
      ],
      "type": "VEC3"
    },
    {
      "bufferView": 2,
      "byteOffset": 27312,
      "componentType": 5126,
      "count": 2276,
      "max": [
        1.0,
        1.0,
        1.0
      ],
      "min": [
        -1.0,
        -1.0,
        -0.9999252557754517
      ],
      "type": "VEC3"
    },
    {
      "bufferView": 1,
      "componentType": 5126,
      "count": 2276,
      "max": [
        0.875,
        1.0
      ],
      "min": [
        0.0,
        0.0
      ],
      "type": "VEC2"
    },
    {
      "bufferView": 0,
      "componentType": 5125,
      "count": 3702,
      "type": "SCALAR"
    },
    {
      "bufferView": 2,
      "byteOffset": 54624,
      "componentType": 5126,
      "count": 158,
      "max": [
        0.7862383723258972,
        0.6547082662582397,
        1.0661498308181763
      ],
      "min": [
        -0.7862383723258972,
        0.34261947870254517,
        -1.1339408159255981
      ],
      "type": "VEC3"
    },
    {
      "bufferView": 2,
      "byteOffset": 56520,
      "componentType": 5126,
      "count": 158,
      "max": [
        0.8496915102005005,
        0.9246786236763,
        0.993068516254425
      ],
      "min": [
        -0.8496914505958557,
        -0.9479204416275024,
        -0.38771969079971313
      ],
      "type": "VEC3"
    },
    {
      "bufferView": 1,
      "byteOffset": 18208,
      "componentType": 5126,
      "count": 158,
      "max": [
        0.75,
        0.75
      ],
      "min": [
        0.0,
        0.0
      ],
      "type": "VEC2"
    },
    {
      "bufferView": 0,
      "byteOffset": 14808,
      "componentType": 5125,
      "count": 294,
      "type": "SCALAR"
    },
    {
      "bufferView": 2,
      "byteOffset": 58416,
      "componentType": 5126,
      "count": 2832,
      "max": [
        0.6003953218460083,
        0.369390070438385,
        -1.6004574298858643
      ],
      "min": [
        -0.6003953218460083,
        0.006564915180206299,
        -1.6835631132125854
      ],
      "type": "VEC3"
    },
    {
      "bufferView": 2,
      "byteOffset": 92400,
      "componentType": 5126,
      "count": 2832,
      "max": [
        0.9951816201210022,
        0.9934723973274231,
        0.9962971210479736
      ],
      "min": [
        -0.9951816201210022,
        -0.9934735298156738,
        -1.0
      ],
      "type": "VEC3"
    },
    {
      "bufferView": 1,
      "byteOffset": 19472,
      "componentType": 5126,
      "count": 2832,
      "max": [
        0.625,
        0.5
      ],
      "min": [
        0.0,
        0.0
      ],
      "type": "VEC2"
    },
    {
      "bufferView": 0,
      "byteOffset": 15984,
      "componentType": 5125,
      "count": 4584,
      "type": "SCALAR"
    },
    {
      "bufferView": 2,
      "byteOffset": 126384,
      "componentType": 5126,
      "count": 128,
      "max": [
        0.586911141872406,
        0.32756221294403076,
        -1.6075130701065063
      ],
      "min": [
        -0.586911141872406,
        0.18381208181381226,
        -1.624488353729248
      ],
      "type": "VEC3"
    },
    {
      "bufferView": 2,
      "byteOffset": 127920,
      "componentType": 5126,
      "count": 128,
      "max": [
        0.02831805683672428,
        0.08118540048599243,
        -0.9962967038154602
      ],
      "min": [
        -0.028318071737885475,
        0.08118384331464767,
        -0.9962968230247498
      ],
      "type": "VEC3"
    },
    {
      "bufferView": 1,
      "byteOffset": 42128,
      "componentType": 5126,
      "count": 128,
      "max": [
        0.0,
        0.0
      ],
      "min": [
        0.0,
        0.0
      ],
      "type": "VEC2"
    },
    {
      "bufferView": 0,
      "byteOffset": 34320,
      "componentType": 5125,
      "count": 360,
      "type": "SCALAR"
    },
    {
      "bufferView": 2,
      "byteOffset": 129456,
      "componentType": 5126,
      "count": 52,
      "max": [
        0.5551227927207947,
        -0.0621851347386837,
        -1.6021050214767456
      ],
      "min": [
        -0.5551227927207947,
        -0.18483753502368927,
        -1.6419841051101685
      ],
      "type": "VEC3"
    },
    {
      "bufferView": 2,
      "byteOffset": 130080,
      "componentType": 5126,
      "count": 52,
      "max": [
        0.014144476503133774,
        -0.24029569327831268,
        0.9247370362281799
      ],
      "min": [
        -0.014144476503133774,
        -0.8428961634635925,
        -0.97068852186203
      ],
      "type": "VEC3"
    },
    {
      "bufferView": 1,
      "byteOffset": 43152,
      "componentType": 5126,
      "count": 52,
      "max": [
        0.15625,
        0.125
      ],
      "min": [
        0.0,
        0.0
      ],
      "type": "VEC2"
    },
    {
      "bufferView": 0,
      "byteOffset": 35760,
      "componentType": 5125,
      "count": 96,
      "type": "SCALAR"
    },
    {
      "bufferView": 2,
      "byteOffset": 130704,
      "componentType": 5126,
      "count": 24,
      "max": [
        0.10261330008506775,
        0.055914588272571564,
        -1.6752914190292358
      ],
      "min": [
        -0.10261330008506775,
        -0.05855513736605644,
        -1.684923529624939
      ],
      "type": "VEC3"
    },
    {
      "bufferView": 2,
      "byteOffset": 130992,
      "componentType": 5126,
      "count": 24,
      "max": [
        0.0,
        -0.07089270651340485,
        -0.9908618927001953
      ],
      "min": [
        0.0,
        -0.13488034904003143,
        -0.9974839687347412
      ],
      "type": "VEC3"
    },
    {
      "bufferView": 1,
      "byteOffset": 43568,
      "componentType": 5126,
      "count": 24,
      "max": [
        0.625,
        0.4154641628265381
      ],
      "min": [
        0.375,
        0.319153368473053
      ],
      "type": "VEC2"
    },
    {
      "bufferView": 0,
      "byteOffset": 36144,
      "componentType": 5125,
      "count": 36,
      "type": "SCALAR"
    },
    {
      "bufferView": 2,
      "byteOffset": 131280,
      "componentType": 5126,
      "count": 20,
      "max": [
        0.6243166327476501,
        0.16143251955509186,
        2.1401259899139404
      ],
      "min": [
        -0.6243166327476501,
        -0.150516539812088,
        1.918641209602356
      ],
      "type": "VEC3"
    },
    {
      "bufferView": 2,
      "byteOffset": 131520,
      "componentType": 5126,
      "count": 20,
      "max": [
        0.4470885694026947,
        0.410661906003952,
        0.9142638444900513
      ],
      "min": [
        -0.4470885097980499,
        0.06567429006099701,
        0.7946499586105347
      ],
      "type": "VEC3"
    },
    {
      "bufferView": 1,
      "byteOffset": 43760,
      "componentType": 5126,
      "count": 20,
      "max": [
        0.625,
        0.5
      ],
      "min": [
        0.625,
        0.4999999701976776
      ],
      "type": "VEC2"
    },
    {
      "bufferView": 0,
      "byteOffset": 36288,
      "componentType": 5125,
      "count": 36,
      "type": "SCALAR"
    },
    {
      "bufferView": 2,
      "byteOffset": 131760,
      "componentType": 5126,
      "count": 7296,
      "max": [
        0.7782772779464722,
        0.6637213826179504,
        2.1853864192962646
      ],
      "min": [
        -0.7782772779464722,
        -0.4279172420501709,
        -1.6336495876312256
      ],
      "type": "VEC3"
    },
    {
      "bufferView": 2,
      "byteOffset": 219312,
      "componentType": 5126,
      "count": 7296,
      "max": [
        0.9999160766601563,
        0.9996281862258911,
        1.0
      ],
      "min": [
        -0.9999160766601563,
        -1.0,
        -0.9999204277992249
      ],
      "type": "VEC3"
    },
    {
      "bufferView": 1,
      "byteOffset": 43920,
      "componentType": 5126,
      "count": 7296,
      "max": [
        0.875,
        1.0
      ],
      "min": [
        0.0,
        0.0
      ],
      "type": "VEC2"
    },
    {
      "bufferView": 0,
      "byteOffset": 36432,
      "componentType": 5125,
      "count": 11370,
      "type": "SCALAR"
    },
    {
      "bufferView": 2,
      "byteOffset": 306864,
      "componentType": 5126,
      "count": 24,
      "max": [
        0.7132626175880432,
        0.2839755415916443,
        0.028774701058864594
      ],
      "min": [
        -0.7132626175880432,
        0.24441708624362946,
        -0.1061571016907692
      ],
      "type": "VEC3"
    },
    {
      "bufferView": 2,
      "byteOffset": 307152,
      "componentType": 5126,
      "count": 24,
      "max": [
        0.9302095770835876,
        0.38106289505958557,
        0.020743370056152344
      ],
      "min": [
        -0.9302095770835876,
        0.3668934106826782,
        -0.0017180542927235365
      ],
      "type": "VEC3"
    },
    {
      "bufferView": 1,
      "byteOffset": 102288,
      "componentType": 5126,
      "count": 24,
      "max": [
        0.625,
        0.75
      ],
      "min": [
        0.3749999701976776,
        0.5
      ],
      "type": "VEC2"
    },
    {
      "bufferView": 0,
      "byteOffset": 81912,
      "componentType": 5125,
      "count": 36,
      "type": "SCALAR"
    },
    {
      "bufferView": 2,
      "byteOffset": 307440,
      "componentType": 5126,
      "count": 6656,
      "max": [
        0.7372003793716431,
        0.031031504273414612,
        1.6292191743850708
      ],
      "min": [
        -0.7372003793716431,
        -0.35121214389801025,
        -1.0542744398117065
      ],
      "type": "VEC3"
    },
    {
      "bufferView": 2,
      "byteOffset": 387312,
      "componentType": 5126,
      "count": 6656,
      "max": [
        1.0,
        0.9999983310699463,
        0.9999884963035583
      ],
      "min": [
        -1.0,
        -0.9999983310699463,
        -0.9999885559082031
      ],
      "type": "VEC3"
    },
    {
      "bufferView": 1,
      "byteOffset": 102480,
      "componentType": 5126,
      "count": 6656,
      "max": [
        0.0,
        0.0
      ],
      "min": [
        0.0,
        0.0
      ],
      "type": "VEC2"
    },
    {
      "bufferView": 0,
      "byteOffset": 82056,
      "componentType": 5125,
      "count": 10320,
      "type": "SCALAR"
    },
    {
      "bufferView": 2,
      "byteOffset": 467184,
      "componentType": 5126,
      "count": 1224,
      "max": [
        0.5857841968536377,
        0.5910066962242126,
        -1.3304259777069092
      ],
      "min": [
        -0.5857841968536377,
        0.2957310378551483,
        -1.583848476409912
      ],
      "type": "VEC3"
    },
    {
      "bufferView": 2,
      "byteOffset": 481872,
      "componentType": 5126,
      "count": 1224,
      "max": [
        1.0,
        0.9992863535881042,
        1.0
      ],
      "min": [
        -1.0,
        -1.0,
        -1.0
      ],
      "type": "VEC3"
    },
    {
      "bufferView": 1,
      "byteOffset": 155728,
      "componentType": 5126,
      "count": 1224,
      "max": [
        0.8750000596046448,
        1.0
      ],
      "min": [
        0.125,
        0.0
      ],
      "type": "VEC2"
    },
    {
      "bufferView": 0,
      "byteOffset": 123336,
      "componentType": 5125,
      "count": 2076,
      "type": "SCALAR"
    },
    {
      "bufferView": 2,
      "byteOffset": 496560,
      "componentType": 5126,
      "count": 384,
      "max": [
        1.0,
        1.661665678024292,
        1.0
      ],
      "min": [
        -1.0,
        0.0,
        -1.1811381578445435
      ],
      "type": "VEC3"
    },
    {
      "bufferView": 2,
      "byteOffset": 501168,
      "componentType": 5126,
      "count": 384,
      "max": [
        0.9951279759407043,
        1.0,
        0.9942930340766907
      ],
      "min": [
        -0.9951280951499939,
        -0.28054988384246826,
        -0.9893798232078552
      ],
      "type": "VEC3"
    },
    {
      "bufferView": 1,
      "byteOffset": 165520,
      "componentType": 5126,
      "count": 384,
      "max": [
        0.0,
        0.0
      ],
      "min": [
        0.0,
        0.0
      ],
      "type": "VEC2"
    },
    {
      "bufferView": 0,
      "byteOffset": 131640,
      "componentType": 5125,
      "count": 576,
      "type": "SCALAR"
    },
    {
      "bufferView": 2,
      "byteOffset": 505776,
      "componentType": 5126,
      "count": 32,
      "max": [
        0.9031450748443604,
        0.9887802600860596,
        0.8170205950737
      ],
      "min": [
        -0.9031450748443604,
        0.21898528933525085,
        -0.817023515701294
      ],
      "type": "VEC3"
    },
    {
      "bufferView": 2,
      "byteOffset": 506160,
      "componentType": 5126,
      "count": 32,
      "max": [
        -2.7799885060630913e-08,
        0.9046409726142883,
        -0.4261745810508728
      ],
      "min": [
        -2.7799885060630913e-08,
        0.9046409726142883,
        -0.4261745810508728
      ],
      "type": "VEC3"
    },
    {
      "bufferView": 1,
      "byteOffset": 168592,
      "componentType": 5126,
      "count": 32,
      "max": [
        0.0,
        0.0
      ],
      "min": [
        0.0,
        0.0
      ],
      "type": "VEC2"
    },
    {
      "bufferView": 0,
      "byteOffset": 133944,
      "componentType": 5125,
      "count": 90,
      "type": "SCALAR"
    }
  ],
  "asset": {
    "extras": {
      "author": "Arifido._ (https://sketchfab.com/Arifido._)",
      "license": "CC-BY-4.0 (http://creativecommons.org/licenses/by/4.0/)",
      "source": "https://sketchfab.com/3d-models/low-poly-nissan-skyline-gt-r-r34-8ecbe8e4e432439fa7159d2e61f6bc9b",
      "title": "Low Poly Nissan Skyline GT-R R34"
    },
    "generator": "Sketchfab-12.66.0",
    "version": "2.0"
  },
  "bufferViews": [
    {
      "buffer": 0,
      "byteLength": 134304,
      "name": "floatBufferViews",
      "target": 34963
    },
    {
      "buffer": 0,
      "byteLength": 168848,
      "byteOffset": 134304,
      "byteStride": 8,
      "name": "floatBufferViews",
      "target": 34962
    },
    {
      "buffer": 0,
      "byteLength": 506544,
      "byteOffset": 303152,
      "byteStride": 12,
      "name": "floatBufferViews",
      "target": 34962
    }
  ],
  "buffers": [
    {
      "byteLength": 809696,
      "uri": "scene.bin"
    }
  ],
  "materials": [
    {
      "doubleSided": true,
      "name": "Material",
      "pbrMetallicRoughness": {
        "baseColorFactor": [
          0.0066095,
          0.0947657,
          0.8,
          1.0
        ],
        "metallicFactor": 0.0,
        "roughnessFactor": 0.5
      }
    },
    {
      "doubleSided": true,
      "name": "Material.001",
      "pbrMetallicRoughness": {
        "baseColorFactor": [
          0.940406,
          1.0,
          1.0,
          1.0
        ],
        "metallicFactor": 0.0,
        "roughnessFactor": 0.0
      }
    },
    {
      "doubleSided": true,
      "emissiveFactor": [
        1.0,
        0.0,
        0.00117932
      ],
      "name": "Material.002",
      "pbrMetallicRoughness": {
        "baseColorFactor": [
          1.0,
          0.0,
          0.0,
          1.0
        ]
      }
    },
    {
      "doubleSided": true,
      "emissiveFactor": [
        1.0,
        0.179507,
        0.0
      ],
      "name": "Material.003",
      "pbrMetallicRoughness": {
        "baseColorFactor": [
          1.0,
          0.3636653736,
          0.0,
          1.0
        ]
      }
    },
    {
      "doubleSided": true,
      "name": "Material.005",
      "pbrMetallicRoughness": {
        "baseColorFactor": [
          0.178862,
          0.178862,
          0.178862,
          1.0
        ],
        "metallicFactor": 0.0,
        "roughnessFactor": 0.5
      }
    },
    {
      "doubleSided": true,
      "name": "Material.007",
      "pbrMetallicRoughness": {
        "baseColorFactor": [
          0.8,
          0.8,
          0.8,
          1.0
        ],
        "metallicFactor": 0.0,
        "roughnessFactor": 0.5
      }
    },
    {
      "doubleSided": true,
      "emissiveFactor": [
        1.0,
        1.0,
        1.0
      ],
      "name": "Material.008"
    },
    {
      "doubleSided": true,
      "name": "Material.009",
      "pbrMetallicRoughness": {
        "baseColorFactor": [
          0.0,
          0.0,
          0.0,
          1.0
        ],
        "metallicFactor": 0.0,
        "roughnessFactor": 0.5
      }
    },
    {
      "doubleSided": true,
      "name": "Material.011",
      "pbrMetallicRoughness": {
        "baseColorFactor": [
          0.106535,
          0.106535,
          0.106535,
          1.0
        ],
        "metallicFactor": 0.0,
        "roughnessFactor": 0.5
      }
    },
    {
      "doubleSided": true,
      "name": "Material.012",
      "pbrMetallicRoughness": {
        "baseColorFactor": [
          0.233016,
          0.233016,
          0.233016,
          1.0
        ],
        "metallicFactor": 0.0,
        "roughnessFactor": 0.5
      }
    },
    {
      "doubleSided": true,
      "name": "Material.014",
      "pbrMetallicRoughness": {
        "baseColorFactor": [
          0.0,
          0.0,
          0.0,
          1.0
        ],
        "metallicFactor": 0.0,
        "roughnessFactor": 0.5
      }
    },
    {
      "doubleSided": true,
      "name": "Material.004",
      "pbrMetallicRoughness": {
        "baseColorFactor": [
          0.0699783,
          0.0699783,
          0.0699783,
          1.0
        ],
        "metallicFactor": 0.0,
        "roughnessFactor": 0.5
      }
    },
    {
      "doubleSided": true,
      "name": "Material.010",
      "pbrMetallicRoughness": {
        "baseColorFactor": [
          0.318539,
          0.318539,
          0.318539,
          1.0
        ],
        "metallicFactor": 0.0,
        "roughnessFactor": 0.5
      }
    }
  ],
  "meshes": [
    {
      "name": "Object_0",
      "primitives": [
        {
          "attributes": {
            "NORMAL": 1,
            "POSITION": 0,
            "TEXCOORD_0": 2
          },
          "indices": 3,
          "material": 0,
          "mode": 4
        }
      ]
    },
    {
      "name": "Object_1",
      "primitives": [
        {
          "attributes": {
            "NORMAL": 5,
            "POSITION": 4,
            "TEXCOORD_0": 6
          },
          "indices": 7,
          "material": 1,
          "mode": 4
        }
      ]
    },
    {
      "name": "Object_2",
      "primitives": [
        {
          "attributes": {
            "NORMAL": 9,
            "POSITION": 8,
            "TEXCOORD_0": 10
          },
          "indices": 11,
          "material": 2,
          "mode": 4
        }
      ]
    },
    {
      "name": "Object_3",
      "primitives": [
        {
          "attributes": {
            "NORMAL": 13,
            "POSITION": 12,
            "TEXCOORD_0": 14
          },
          "indices": 15,
          "material": 3,
          "mode": 4
        }
      ]
    },
    {
      "name": "Object_4",
      "primitives": [
        {
          "attributes": {
            "NORMAL": 17,
            "POSITION": 16,
            "TEXCOORD_0": 18
          },
          "indices": 19,
          "material": 4,
          "mode": 4
        }
      ]
    },
    {
      "name": "Object_5",
      "primitives": [
        {
          "attributes": {
            "NORMAL": 21,
            "POSITION": 20,
            "TEXCOORD_0": 22
          },
          "indices": 23,
          "material": 5,
          "mode": 4
        }
      ]
    },
    {
      "name": "Object_6",
      "primitives": [
        {
          "attributes": {
            "NORMAL": 25,
            "POSITION": 24,
            "TEXCOORD_0": 26
          },
          "indices": 27,
          "material": 6,
          "mode": 4
        }
      ]
    },
    {
      "name": "Object_7",
      "primitives": [
        {
          "attributes": {
            "NORMAL": 29,
            "POSITION": 28,
            "TEXCOORD_0": 30
          },
          "indices": 31,
          "material": 7,
          "mode": 4
        }
      ]
    },
    {
      "name": "Object_8",
      "primitives": [
        {
          "attributes": {
            "NORMAL": 33,
            "POSITION": 32,
            "TEXCOORD_0": 34
          },
          "indices": 35,
          "material": 8,
          "mode": 4
        }
      ]
    },
    {
      "name": "Object_9",
      "primitives": [
        {
          "attributes": {
            "NORMAL": 37,
            "POSITION": 36,
            "TEXCOORD_0": 38
          },
          "indices": 39,
          "material": 9,
          "mode": 4
        }
      ]
    },
    {
      "name": "Object_10",
      "primitives": [
        {
          "attributes": {
            "NORMAL": 41,
            "POSITION": 40,
            "TEXCOORD_0": 42
          },
          "indices": 43,
          "material": 10,
          "mode": 4
        }
      ]
    },
    {
      "name": "Object_11",
      "primitives": [
        {
          "attributes": {
            "NORMAL": 45,
            "POSITION": 44,
            "TEXCOORD_0": 46
          },
          "indices": 47,
          "material": 11,
          "mode": 4
        }
      ]
    },
    {
      "name": "Object_12",
      "primitives": [
        {
          "attributes": {
            "NORMAL": 49,
            "POSITION": 48,
            "TEXCOORD_0": 50
          },
          "indices": 51,
          "material": 12,
          "mode": 4
        }
      ]
    }
  ],
  "nodes": [
    {
      "children": [
        1
      ],
      "matrix": [
        1.0,
        0.0,
        0.0,
        0.0,
        0.0,
        2.220446049250313e-16,
        -1.0,
        0.0,
        0.0,
        1.0,
        2.220446049250313e-16,
        0.0,
        0.0,
        0.0,
        0.0,
        1.0
      ],
      "name": "Sketchfab_model"
    },
    {
      "children": [
        2
      ],
      "name": "root"
    },
    {
      "children": [
        3
      ],
      "matrix": [
        1.0,
        0.0,
        0.0,
        0.0,
        0.0,
        2.220446049250313e-16,
        1.0,
        0.0,
        0.0,
        -1.0,
        2.220446049250313e-16,
        0.0,
        0.0,
        0.0,
        0.0,
        1.0
      ],
      "name": "GLTF_SceneRootNode"
    },
    {
      "children": [
        4,
        5,
        6,
        7,
        8,
        9,
        10,
        11,
        12,
        13,
        14,
        15
      ],
      "matrix": [
        1.0,
        0.0,
        0.0,
        0.0,
        0.0,
        1.0,
        0.0,
        0.0,
        0.0,
        0.0,
        1.0,
        0.0,
        -0.013296565972268581,
        0.0,
        0.9098679423332214,
        1.0
      ],
      "name": "Cube_1"
    },
    {
      "mesh": 0,
      "name": "Object_4"
    },
    {
      "mesh": 1,
      "name": "Object_5"
    },
    {
      "mesh": 2,
      "name": "Object_6"
    },
    {
      "mesh": 3,
      "name": "Object_7"
    },
    {
      "mesh": 4,
      "name": "Object_8"
    },
    {
      "mesh": 5,
      "name": "Object_9"
    },
    {
      "mesh": 6,
      "name": "Object_10"
    },
    {
      "mesh": 7,
      "name": "Object_11"
    },
    {
      "mesh": 8,
      "name": "Object_12"
    },
    {
      "mesh": 9,
      "name": "Object_13"
    },
    {
      "mesh": 10,
      "name": "Object_14"
    },
    {
      "children": [
        16,
        17
      ],
      "matrix": [
        0.06091451272368431,
        0.0,
        0.0,
        0.0,
        0.0,
        0.0,
        0.06091451272368431,
        0.0,
        0.0,
        -0.06091451272368431,
        0.0,
        0.0,
        0.3953431248664856,
        -0.14373143017292023,
        -1.6659846305847168,
        1.0
      ],
      "name": "Circle_0"
    },
    {
      "mesh": 11,
      "name": "Object_16"
    },
    {
      "mesh": 12,
      "name": "Object_17"
    }
  ],
  "scene": 0,
  "scenes": [
    {
      "name": "Sketchfab_Scene",
      "nodes": [
        0
      ]
    }
  ]
}
