{
  "accessors": [
    {
      "bufferView": 2,
      "componentType": 5126,
      "count": 1985,
      "max": [
        2.0548534393310547,
        4.281750679016113,
        2.3614273071289063
      ],
      "min": [
        -2.039815902709961,
        -1.3663639037986286e-05,
        -2.7863149642944336
      ],
      "type": "VEC3"
    },
    {
      "bufferView": 2,
      "byteOffset": 23820,
      "componentType": 5126,
      "count": 1985,
      "max": [
        1.0,
        1.0,
        1.0
      ],
      "min": [
        -1.0,
        -1.0,
        -1.0
      ],
      "type": "VEC3"
    },
    {
      "bufferView": 1,
      "componentType": 5126,
      "count": 1985,
      "max": [
        0.982195258140564,
        0.9744380712509155
      ],
      "min": [
        0.025542959570884705,
        0.015620231628417969
      ],
      "type": "VEC2"
    },
    {
      "bufferView": 0,
      "componentType": 5125,
      "count": 2961,
      "type": "SCALAR"
    }
  ],
  "asset": {
    "extras": {
      "author": "A3D (https://sketchfab.com/akolmonen)",
      "license": "CC-BY-4.0 (http://creativecommons.org/licenses/by/4.0/)",
      "source": "https://sketchfab.com/3d-models/suburb-house-1-fbdd97651fff4a42b7d193f1b53bb8dd",
      "title": "Suburb House 1"
    },
    "generator": "Sketchfab-12.68.0",
    "version": "2.0"
  },
  "bufferViews": [
    {
      "buffer": 0,
      "byteLength": 11844,
      "name": "floatBufferViews",
      "target": 34963
    },
    {
      "buffer": 0,
      "byteLength": 15880,
      "byteOffset": 11844,
      "byteStride": 8,
      "name": "floatBufferViews",
      "target": 34962
    },
    {
      "buffer": 0,
      "byteLength": 47640,
      "byteOffset": 27724,
      "byteStride": 12,
      "name": "floatBufferViews",
      "target": 34962
    }
  ],
  "buffers": [
    {
      "byteLength": 75364,
      "uri": "scene.bin"
    }
  ],
  "images": [
    {
      "uri": "textures/Suburb_House_1_baseColor.png"
    }
  ],
  "materials": [
    {
      "doubleSided": true,
      "name": "Suburb_House_1",
      "pbrMetallicRoughness": {
        "baseColorTexture": {
          "index": 0
        },
        "metallicFactor": 0.0,
        "roughnessFactor": 0.6
      }
    }
  ],
  "meshes": [
    {
      "name": "Suburb House 1_Suburb House 1_0",
      "primitives": [
        {
          "attributes": {
            "NORMAL": 1,
            "POSITION": 0,
            "TEXCOORD_0": 2
          },
          "indices": 3,
          "material": 0,
          "mode": 4
        }
      ]
    }
  ],
  "nodes": [
    {
      "children": [
        1
      ],
      "matrix": [
        0.24641400575637817,
        0.0,
        0.0,
        0.0,
        0.0,
        5.471490055616938e-17,
        -0.24641400575637817,
        0.0,
        0.0,
        0.24641400575637817,
        5.471490055616938e-17,
        0.0,
        0.0,
        0.0,
        0.0,
        1.0
      ],
      "name": "Sketchfab_model"
    },
    {
      "children": [
        2
      ],
      "matrix": [
        1.0,
        0.0,
        0.0,
        0.0,
        0.0,
        0.0,
        1.0,
        0.0,
        0.0,
        -1.0,
        0.0,
        0.0,
        0.0,
        0.0,
        0.0,
        1.0
      ],
      "name": "8ae54d3e6e424eaca1ae9e93ebd14e30.fbx"
    },
    {
      "children": [
        3
      ],
      "name": "RootNode"
    },
    {
      "children": [
        4
      ],
      "matrix": [
        1.0,
        0.0,
        0.0,
        0.0,
        0.0,
        0.9999999999934478,
        3.6199901387511154e-06,
        0.0,
        0.0,
        -3.6199901387511154e-06,
        0.9999999999934478,
        0.0,
        0.0,
        0.0,
        0.0,
        1.0
      ],
      "name": "Suburb House 1"
    },
    {
      "mesh": 0,
      "name": "Suburb House 1_Suburb House 1_0"
    }
  ],
  "samplers": [
    {
      "magFilter": 9729,
      "minFilter": 9987,
      "wrapS": 10497,
      "wrapT": 10497
    }
  ],
  "scene": 0,
  "scenes": [
    {
      "name": "Sketchfab_Scene",
      "nodes": [
        0
      ]
    }
  ],
  "textures": [
    {
      "sampler": 0,
      "source": 0
    }
  ]
}
